<svg width="29" height="29" viewBox="0 0 29 29" fill="none" xmlns="http://www.w3.org/2000/svg">
<path d="M3.90187 0.22062C3.87522 0.225464 3.84858 0.232729 3.82436 0.239995C3.53616 0.305386 3.33272 0.564527 3.33999 0.859995V6.44H8.91999C9.1428 6.44242 9.35108 6.32617 9.46491 6.13242C9.57632 5.93867 9.57632 5.70132 9.46491 5.50757C9.35108 5.31382 9.1428 5.19757 8.91999 5.2H5.39374C7.74296 2.90164 10.9519 1.48 14.5 1.48C21.6978 1.48 27.52 7.30218 27.52 14.5C27.52 21.6978 21.6978 27.52 14.5 27.52C7.30218 27.52 1.47999 21.6978 1.47999 14.5C1.47999 12.3469 2.01038 10.3198 2.93312 8.5325L1.82874 7.97062C0.816397 9.9275 0.23999 12.1484 0.23999 14.5C0.23999 22.3687 6.63132 28.76 14.5 28.76C22.3687 28.76 28.76 22.3687 28.76 14.5C28.76 6.63132 22.3687 0.239995 14.5 0.239995C10.6395 0.239995 7.14718 1.79242 4.57999 4.28937V0.859995C4.58726 0.680777 4.5146 0.508823 4.38624 0.387729C4.25546 0.264214 4.07866 0.203667 3.90187 0.22062ZM14.5 2.1C14.1585 2.1 13.88 2.37851 13.88 2.71999C13.88 3.06148 14.1585 3.33999 14.5 3.33999C14.8415 3.33999 15.12 3.06148 15.12 2.71999C15.12 2.37851 14.8415 2.1 14.5 2.1ZM20.39 3.66937C20.0485 3.66937 19.77 3.94789 19.77 4.28937C19.77 4.63085 20.0485 4.90937 20.39 4.90937C20.7315 4.90937 21.01 4.63085 21.01 4.28937C21.01 3.94789 20.7315 3.66937 20.39 3.66937ZM24.7106 7.99C24.3691 7.99 24.0906 8.26851 24.0906 8.60999C24.0906 8.95148 24.3691 9.22999 24.7106 9.22999C25.0521 9.22999 25.3306 8.95148 25.3306 8.60999C25.3306 8.26851 25.0521 7.99 24.7106 7.99ZM10.3925 9.48187C8.67296 9.48187 7.44749 10.6032 7.44749 12.2137V12.2331H8.72624V12.2137C8.72624 11.2813 9.37046 10.6637 10.3344 10.6637C11.2353 10.6637 11.9231 11.2595 11.9231 12.0587C11.9231 12.7005 11.6398 13.1655 10.47 14.3837L7.52499 17.445V18.4331H13.415V17.2125H9.40436V17.1156L11.3612 15.1394C12.8265 13.6572 13.26 12.9064 13.26 11.9812C13.26 10.5402 12.0515 9.48187 10.3925 9.48187ZM18.5881 9.69499C17.0308 12.0273 15.7279 14.0592 14.9456 15.4881V16.7475H19.2081V18.4331H20.5062V16.7475H21.7269V15.5269H20.5062V9.69499H18.5881ZM19.15 10.8962H19.2275V15.5656H16.2437V15.4687C17.273 13.6814 18.2854 12.1484 19.15 10.8962ZM2.71999 13.88C2.37851 13.88 2.09999 14.1585 2.09999 14.5C2.09999 14.8415 2.37851 15.12 2.71999 15.12C3.06147 15.12 3.33999 14.8415 3.33999 14.5C3.33999 14.1585 3.06147 13.88 2.71999 13.88ZM26.28 13.88C25.9385 13.88 25.66 14.1585 25.66 14.5C25.66 14.8415 25.9385 15.12 26.28 15.12C26.6215 15.12 26.9 14.8415 26.9 14.5C26.9 14.1585 26.6215 13.88 26.28 13.88ZM4.28936 19.77C3.94788 19.77 3.66936 20.0485 3.66936 20.39C3.66936 20.7315 3.94788 21.01 4.28936 21.01C4.63085 21.01 4.90936 20.7315 4.90936 20.39C4.90936 20.0485 4.63085 19.77 4.28936 19.77ZM24.7106 19.77C24.3691 19.77 24.0906 20.0485 24.0906 20.39C24.0906 20.7315 24.3691 21.01 24.7106 21.01C25.0521 21.01 25.3306 20.7315 25.3306 20.39C25.3306 20.0485 25.0521 19.77 24.7106 19.77ZM8.60999 24.0906C8.26851 24.0906 7.98999 24.3691 7.98999 24.7106C7.98999 25.0521 8.26851 25.3306 8.60999 25.3306C8.95147 25.3306 9.22999 25.0521 9.22999 24.7106C9.22999 24.3691 8.95147 24.0906 8.60999 24.0906ZM20.39 24.0906C20.0485 24.0906 19.77 24.3691 19.77 24.7106C19.77 25.0521 20.0485 25.3306 20.39 25.3306C20.7315 25.3306 21.01 25.0521 21.01 24.7106C21.01 24.3691 20.7315 24.0906 20.39 24.0906ZM14.5 25.66C14.1585 25.66 13.88 25.9385 13.88 26.28C13.88 26.6215 14.1585 26.9 14.5 26.9C14.8415 26.9 15.12 26.6215 15.12 26.28C15.12 25.9385 14.8415 25.66 14.5 25.66Z" fill="white"/>
</svg>
