<svg width="17" height="16" viewBox="0 0 17 16" fill="none" xmlns="http://www.w3.org/2000/svg">
<path d="M3.70817 15.2708V14.4635H10.6613C11.946 14.4635 13.0571 14.0425 13.9946 13.2005C14.9321 12.3585 15.4009 11.3038 15.4009 10.0365C15.4009 8.7691 14.9321 7.71441 13.9946 6.87239C13.0571 6.03038 11.946 5.60937 10.6613 5.60937H2.32796L5.68734 8.96875L5.11442 9.54167L0.791504 5.21875L5.11442 0.895832L5.68734 1.46875L2.32796 4.80208H10.6353C12.1457 4.80208 13.4521 5.30555 14.5545 6.3125C15.657 7.31944 16.2082 8.56076 16.2082 10.0365C16.2082 11.5122 15.657 12.7535 14.5545 13.7604C13.4521 14.7674 12.1457 15.2708 10.6353 15.2708H3.70817Z" fill="white"/>
</svg>
