<svg width="18" height="20" viewBox="0 0 18 20" fill="none" xmlns="http://www.w3.org/2000/svg">
<path d="M9.00004 12.3292C8.78337 12.3292 8.58928 12.2479 8.41775 12.0854C8.24622 11.9229 8.16046 11.7243 8.16046 11.4896C8.16046 11.2729 8.24622 11.0833 8.41775 10.9208C8.58928 10.7583 8.78337 10.6771 9.00004 10.6771C9.21671 10.6771 9.41081 10.7583 9.58233 10.9208C9.75386 11.0833 9.83962 11.2729 9.83962 11.4896C9.83962 11.7243 9.75386 11.9229 9.58233 12.0854C9.41081 12.2479 9.21671 12.3292 9.00004 12.3292ZM4.66671 12.3292C4.45004 12.3292 4.25594 12.2479 4.08442 12.0854C3.91289 11.9229 3.82712 11.7243 3.82712 11.4896C3.82712 11.2729 3.91289 11.0833 4.08442 10.9208C4.25594 10.7583 4.45004 10.6771 4.66671 10.6771C4.88337 10.6771 5.07747 10.7583 5.249 10.9208C5.42053 11.0833 5.50629 11.2729 5.50629 11.4896C5.50629 11.7243 5.42053 11.9229 5.249 12.0854C5.07747 12.2479 4.88337 12.3292 4.66671 12.3292ZM13.3334 12.3292C13.1167 12.3292 12.9226 12.2479 12.7511 12.0854C12.5796 11.9229 12.4938 11.7243 12.4938 11.4896C12.4938 11.2729 12.5796 11.0833 12.7511 10.9208C12.9226 10.7583 13.1167 10.6771 13.3334 10.6771C13.55 10.6771 13.7441 10.7583 13.9157 10.9208C14.0872 11.0833 14.173 11.2729 14.173 11.4896C14.173 11.7243 14.0872 11.9229 13.9157 12.0854C13.7441 12.2479 13.55 12.3292 13.3334 12.3292ZM9.00004 16.5C8.78337 16.5 8.58928 16.4188 8.41775 16.2563C8.24622 16.0938 8.16046 15.8951 8.16046 15.6604C8.16046 15.4438 8.24622 15.2497 8.41775 15.0781C8.58928 14.9066 8.78337 14.8208 9.00004 14.8208C9.21671 14.8208 9.41081 14.9066 9.58233 15.0781C9.75386 15.2497 9.83962 15.4438 9.83962 15.6604C9.83962 15.8951 9.75386 16.0938 9.58233 16.2563C9.41081 16.4188 9.21671 16.5 9.00004 16.5ZM4.66671 16.5C4.45004 16.5 4.25594 16.4188 4.08442 16.2563C3.91289 16.0938 3.82712 15.8951 3.82712 15.6604C3.82712 15.4438 3.91289 15.2497 4.08442 15.0781C4.25594 14.9066 4.45004 14.8208 4.66671 14.8208C4.88337 14.8208 5.07747 14.9066 5.249 15.0781C5.42053 15.2497 5.50629 15.4438 5.50629 15.6604C5.50629 15.8951 5.42053 16.0938 5.249 16.2563C5.07747 16.4188 4.88337 16.5 4.66671 16.5ZM13.3334 16.5C13.1167 16.5 12.9226 16.4188 12.7511 16.2563C12.5796 16.0938 12.4938 15.8951 12.4938 15.6604C12.4938 15.4438 12.5796 15.2497 12.7511 15.0781C12.9226 14.9066 13.1167 14.8208 13.3334 14.8208C13.55 14.8208 13.7441 14.9066 13.9157 15.0781C14.0872 15.2497 14.173 15.4438 14.173 15.6604C14.173 15.8951 14.0872 16.0938 13.9157 16.2563C13.7441 16.4188 13.55 16.5 13.3334 16.5ZM1.82296 19.75C1.40768 19.75 1.0556 19.6056 0.766707 19.3167C0.477819 19.0278 0.333374 18.6757 0.333374 18.2604V3.66251C0.333374 3.24723 0.477819 2.89514 0.766707 2.60626C1.0556 2.31737 1.40768 2.17292 1.82296 2.17292H4.07087V0.0062561H5.04587V2.17292H13.0355V0.0062561H13.9563V2.17292H16.1771C16.5924 2.17292 16.9445 2.31737 17.2334 2.60626C17.5223 2.89514 17.6667 3.24723 17.6667 3.66251V18.2604C17.6667 18.6757 17.5223 19.0278 17.2334 19.3167C16.9445 19.6056 16.5924 19.75 16.1771 19.75H1.82296ZM1.82296 18.9104H16.1771C16.3396 18.9104 16.4886 18.8427 16.624 18.7073C16.7594 18.5719 16.8271 18.4229 16.8271 18.2604V8.37501H1.17296V18.2604C1.17296 18.4229 1.24067 18.5719 1.37608 18.7073C1.5115 18.8427 1.66046 18.9104 1.82296 18.9104Z" fill="white"/>
</svg>
