<?xml version="1.0" standalone="no"?>
<!DOCTYPE svg PUBLIC "-//W3C//DTD SVG 20010904//EN"
 "http://www.w3.org/TR/2001/REC-SVG-20010904/DTD/svg10.dtd">
<svg version="1.0" xmlns="http://www.w3.org/2000/svg"
 width="150.000000pt" height="150.000000pt" viewBox="0 0 150.000000 150.000000"
 preserveAspectRatio="xMidYMid meet">
<metadata>
Created by potrace 1.14, written by Peter Selinger 2001-2017
</metadata>
<g transform="translate(0.000000,150.000000) scale(0.100000,-0.100000)"
fill="#000000" stroke="none">
<path d="M773 1213 c-13 -2 -23 -11 -23 -19 0 -18 3 -18 42 6 32 19 28 22 -19
13z"/>
<path d="M749 1113 c-1 -32 -3 -112 -4 -178 -2 -66 -6 -257 -9 -423 -2 -167
-7 -307 -10 -310 -4 -3 -73 23 -154 58 -81 35 -177 76 -214 92 -37 15 -88 38
-115 50 -26 12 -50 22 -53 23 -3 0 -16 7 -28 14 -13 7 -26 10 -29 7 -3 -2 137
-75 311 -160 l316 -156 309 158 c170 86 308 158 306 160 -2 2 -17 -4 -34 -12
-17 -9 -33 -16 -36 -16 -3 0 -39 -16 -81 -35 -42 -19 -78 -35 -81 -35 -2 0
-30 -12 -61 -26 -114 -52 -258 -116 -278 -124 -20 -8 -21 -5 -21 61 l0 70 106
51 c58 28 153 73 210 100 56 27 100 52 97 55 -3 3 -11 1 -18 -4 -7 -5 -31 -17
-53 -26 -56 -22 -165 -68 -262 -111 l-83 -35 0 69 0 70 110 55 c60 30 113 55
116 54 4 0 10 3 13 8 3 4 35 23 71 41 36 18 58 31 50 28 -23 -7 -144 -59 -257
-109 -57 -25 -103 -43 -104 -39 -7 50 -4 123 5 130 6 5 70 40 141 77 153 79
180 99 75 55 -41 -18 -106 -45 -144 -61 -37 -16 -72 -29 -77 -29 -5 0 -9 28
-9 63 l0 63 43 24 c23 14 63 35 90 49 26 14 47 29 47 33 0 5 -3 8 -7 6 -45
-22 -65 -30 -111 -48 -29 -11 -56 -20 -60 -20 -4 0 -7 28 -7 62 l0 61 77 46
c42 25 75 47 74 48 -3 3 -107 -35 -128 -47 -23 -13 -26 -4 -25 63 1 31 -1 57
-5 57 -5 0 -9 -26 -9 -57z"/>
<path d="M970 950 c-9 -6 -10 -10 -3 -10 6 0 15 5 18 10 8 12 4 12 -15 0z"/>
</g>
</svg>
